<svg width="24" height="24" viewBox="0 0 24 24" fill="none" xmlns="http://www.w3.org/2000/svg">
<path fill-rule="evenodd" clip-rule="evenodd" d="M9.3775 0.123915C9.50824 0.125307 9.6332 0.108652 9.75239 0.073954C11.3187 -0.0286516 12.8849 -0.0244899 14.451 0.0864444C15.871 0.197086 17.2456 0.505183 18.5748 1.01073C20.7846 1.92048 22.2966 3.49843 23.1109 5.74457C23.5766 7.0969 23.8516 8.4875 23.9357 9.91634C24.0521 11.7106 24.0105 13.5009 23.8107 15.2872C23.6612 16.5427 23.3363 17.7501 22.836 18.9094C21.9081 20.9194 20.4044 22.3058 18.3249 23.0687C16.6397 23.6381 14.9069 23.9378 13.1264 23.968C11.1236 24.0721 9.14087 23.9222 7.17815 23.5183C3.56552 22.7136 1.337 20.5111 0.49263 16.9109C0.134306 15.2903 -0.0281463 13.6499 0.00527377 11.9897C-0.0347169 10.2244 0.152728 8.4841 0.567607 6.76878C1.45278 3.40263 3.58964 1.31674 6.97821 0.511116C7.7678 0.318078 8.56756 0.18901 9.3775 0.123915Z" fill="url(#paint0_linear_19_19)"/>
<path d="M13 14.4952L14.7331 16.1973" stroke="#FAFAFA" stroke-width="0.990329"/>
<path d="M17.5091 14L14.7238 16.8781" stroke="#FAFAFA" stroke-width="0.990329"/>
<path d="M16.6576 8.67311L12.3102 5.12469C11.5093 4.47096 10.358 4.47428 9.56089 5.13264L4.78683 9.0755C4.28854 9.48704 4 10.0996 4 10.7458V15.4816C4 16.6781 4.96991 17.648 6.16634 17.648H9.91103" stroke="#FAFAFA" stroke-width="0.990329"/>
<path d="M5.67117 6.10445V8.36363" stroke="#FAFAFA" stroke-width="0.990329"/>
<path d="M11.8298 16.5029C10.9606 14.9029 10.8085 11.9536 10.8085 11.9536C10.8085 11.9536 13.622 10.7876 15.5126 10.8085C17.3211 10.8285 20 11.9536 20 11.9536C20 11.9536 19.9634 14.896 19.1335 16.5029C18.2236 18.2645 15.5126 20.0619 15.5126 20.0619C15.5126 20.0619 12.7845 18.2604 11.8298 16.5029Z" stroke="#FAFAFA" stroke-width="0.990329"/>
<defs>
<linearGradient id="paint0_linear_19_19" x1="12" y1="0" x2="12" y2="12" gradientUnits="userSpaceOnUse">
<stop stop-color="#D2FFD7"/>
<stop offset="1" stop-color="#67BB70"/>
</linearGradient>
</defs>
</svg>
